<svg xmlns="http://www.w3.org/2000/svg" viewBox="0 0 204.29 140"><defs><style>.cls-1{fill:#f6f6f6;}</style></defs><g id="Capa_2" data-name="Capa 2"><g id="Capa_1-2" data-name="Capa 1"><path class="cls-1" d="M34.5,107.35c7.45,9.67,17.6,15.08,29,18.76-3.64,4.55-7.15,9-10.75,13.34a2.63,2.63,0,0,1-1.87.55c-13.86-.25-26.73-4-38.09-11.91C3,121.25-1,111.39.19,99.53A222.55,222.55,0,0,1,13.51,42.84,65.86,65.86,0,0,1,72.26,0a6.28,6.28,0,0,1,3.48,1.42C59.82,5.85,44.84,11.68,32,22.14q69-30.57,137.62.67a78.78,78.78,0,0,0-19.72-11.95c-7-3-14.2-5.65-21.32-8.46C129.45.71,131,0,133.18.2,160.77,2.88,180.07,17,190.6,42.56A195.6,195.6,0,0,1,204.09,98c1.24,12.46-3.46,22.45-13.87,29.35a71.27,71.27,0,0,1-38,11.76,3.67,3.67,0,0,1-3.39-1.46c-3.15-4-6.43-7.94-9.92-12.23,11.91-3.76,22.42-9.07,30.18-18.84-.67.38-1.36.74-2,1.14-14.61,8.73-30.14,14.89-47.14,17-15.39,1.94-30.54.54-45.51-3.17C61,118.26,47.91,114,35.51,107.75,35.18,107.59,34.83,107.48,34.5,107.35ZM151.56,80c0-10.12-8.12-18.69-17.78-18.77s-18.06,8.61-18,18.56,8.33,18.66,18,18.64S151.56,89.94,151.56,80Zm-99.8-.36c0,10.11,8.08,18.69,17.74,18.79s18-8.64,18-18.54S79.2,61.25,69.62,61.27,51.78,69.78,51.76,79.68Z"/></g></g></svg>