<svg xmlns="http://www.w3.org/2000/svg" viewBox="0 0 140.02 140"><defs><style>.cls-1{fill:#f6f6f6;}</style></defs><g id="Capa_2" data-name="Capa 2"><g id="Capa_1-2" data-name="Capa 1"><path class="cls-1" d="M65.63,0h8.75c1.66.2,3.33.37,5,.61,15,2.13,28.22,8.23,39,18.9,18.22,18,25.1,39.85,20,64.92-4.35,21.41-16.84,37.18-36,47.62a61.4,61.4,0,0,1-12.92,5.17V85.46h15L106.69,68H89.48c0-4.67-.2-9.18.06-13.67.19-3.32,2-5.15,5.33-5.64a64.38,64.38,0,0,1,7.62-.32c1.54,0,3.07,0,4.62,0V32.55c-3.28-.18-6.5-.52-9.72-.49a49.39,49.39,0,0,0-10,.67C77.9,34.78,71.9,42.14,71.4,52c-.24,4.73-.12,9.47-.17,14.21V68H56.32V85.56H71.13v54.35c-.24,0-.37.07-.51.07-.36,0-.72,0-1.09,0a66.91,66.91,0,0,1-28.93-6.52Q8.13,117.7,1.09,82.2C.59,79.62.36,77,0,74.38V65.63c.11-.9.23-1.8.33-2.69A68.89,68.89,0,0,1,18,23.2,68.46,68.46,0,0,1,58.08,1.06C60.58.62,63.11.35,65.63,0Z"/></g></g></svg>