<svg xmlns="http://www.w3.org/2000/svg" viewBox="0 0 139.74 140"><defs><style>.cls-1{fill:#f6f6f6;}</style></defs><g id="Capa_2" data-name="Capa 2"><g id="Capa_1-2" data-name="Capa 1"><path class="cls-1" d="M48.91,0H90.77c3.27.18,6.54.35,9.8.55a46.48,46.48,0,0,1,16.57,3.68C130,10,136.8,20.34,138.91,34c.37,2.41.56,4.86.83,7.29V97.67c-.08.63-.17,1.25-.24,1.88-.38,3.07-.52,6.19-1.15,9.2-2.78,13.38-10.34,22.89-23.2,27.9-6.16,2.4-12.65,3-19.19,3.12-14.82.15-29.63.29-44.45.21-7.28,0-14.59-.07-21.75-1.81-11.59-2.81-20.2-9.39-25.32-20.24C1.29,111.25.33,104.06.25,96.77.09,81.64-.08,66.5,0,51.37A138.2,138.2,0,0,1,1.41,32.3,35.47,35.47,0,0,1,15.59,8.36C22.46,3.2,30.42,1.15,38.83.56,42.19.32,45.55.18,48.91,0ZM70,127.7v-.22c3.69,0,7.39.11,11.08,0,7.92-.29,15.9-.19,23.73-1.18,10.78-1.34,18.08-7.53,20.73-18.25a60.08,60.08,0,0,0,1.51-13.39q.38-21.14.21-42.27a140.67,140.67,0,0,0-1-17c-1.43-11.23-8.46-18.86-19.55-21.07a82.68,82.68,0,0,0-14.67-1.32c-12.26-.21-24.52-.17-36.79-.13-7,0-14-.07-21,1.16-10.61,1.86-17.89,8.6-20.06,19.18a78.82,78.82,0,0,0-1.34,14c-.24,11.21-.33,22.43-.21,33.65.09,7.92.3,15.87,1.06,23.74a23.16,23.16,0,0,0,11.12,18.24,29.88,29.88,0,0,0,15,4.16C49.88,127.28,60,127.45,70,127.7Z"/><path class="cls-1" d="M34,70a36,36,0,1,1,36,36A36,36,0,0,1,34,70Zm12.68,0A23.32,23.32,0,1,0,70,46.74,23.25,23.25,0,0,0,46.65,70Z"/><path class="cls-1" d="M107.54,24.28A8.38,8.38,0,0,1,107.2,41a8.38,8.38,0,1,1,.34-16.76Z"/></g></g></svg>