<svg xmlns="http://www.w3.org/2000/svg" viewBox="0 0 140 140"><defs><style>.cls-1{fill:#f6f6f6;}</style></defs><g id="Capa_2" data-name="Capa 2"><g id="Capa_1-2" data-name="Capa 1"><path class="cls-1" d="M140,18.06v104c-.16.79-.32,1.58-.49,2.37A19,19,0,0,1,120.3,140Q70,140,19.62,140a20.56,20.56,0,0,1-4.07-.38A19,19,0,0,1,0,120.51Q0,70.86,0,21.2a40,40,0,0,1,.22-4.09A18.64,18.64,0,0,1,15.05.61L18,0h104a6.82,6.82,0,0,0,1.15.33,18.8,18.8,0,0,1,16.26,14.56C139.58,16,139.78,17,140,18.06ZM74.69,61.56c0-1.21,0-2.29,0-3.36,0-1.93-1.1-3.19-3-3.22-4.28-.08-8.57-.07-12.85,0a2.8,2.8,0,0,0-3,3.06q0,26.48,0,52.94a2.7,2.7,0,0,0,3,3c4.24,0,8.48,0,12.72,0a3.17,3.17,0,0,0,2.25-1,4.87,4.87,0,0,0,.82-2.76c.06-9,0-18.06,0-27.09a15.16,15.16,0,0,1,3.06-9.44C80,70.73,83.13,70,86.56,70.49s5.46,2.45,6.63,5.59C94.27,79,94.26,82,94.25,85q0,12.59,0,25.17c0,2.81,1,3.81,3.75,3.81H110.3c2.26,0,3.26-1,3.26-3.24,0-10.22.11-20.43-.07-30.64a51.71,51.71,0,0,0-1.4-10.79c-1.48-6.36-4.92-11.34-11.32-13.73a26.18,26.18,0,0,0-10.89-1.42C84,54.5,78.81,56.3,75.16,61.25,75.09,61.35,75,61.39,74.69,61.56Zm-45.64,23h0q0,13.05,0,26.11c0,2.17,1.14,3.27,3.31,3.27,3.87,0,7.74,0,11.62,0,2.76,0,3.87-1.11,3.87-3.9q0-25.56,0-51.13c0-2.77-1.22-4-4-4H33.18c-3.07,0-4.13,1-4.13,4.06Q29,71.77,29.05,84.56Zm9.38-58.4a12.09,12.09,0,1,0,0,24.17,12.09,12.09,0,1,0,0-24.17Z"/></g></g></svg>