<svg xmlns="http://www.w3.org/2000/svg" viewBox="0 0 171.21 140"><defs><style>.cls-1{fill:#f6f6f6;}</style></defs><g id="Capa_2" data-name="Capa 2"><g id="Capa_1-2" data-name="Capa 1"><path class="cls-1" d="M171.21,17.2a64.49,64.49,0,0,1-15.49,16.41A3.52,3.52,0,0,0,154.16,37,100.19,100.19,0,0,1,144,83.46c-8.42,17.56-20.69,31.77-37.3,42.07A96.16,96.16,0,0,1,68.3,139a105.1,105.1,0,0,1-29-.07,98.16,98.16,0,0,1-39-14.33,4.72,4.72,0,0,1-.34-.4c19,1.74,36.11-2.92,51.71-14.65a42.55,42.55,0,0,1-7-.9c-12.1-3.05-20.49-10.4-25.27-21.89-.73-1.76-.6-1.85,1.33-1.57a35.91,35.91,0,0,0,12.53-.55,4.83,4.83,0,0,0,.83-.35c-20.2-5-28.37-23.07-27.49-34.93a35.07,35.07,0,0,0,7.33,3,25.05,25.05,0,0,0,8.12,1.12C14.48,47.94,9.56,40.89,7.57,31.94A35,35,0,0,1,11.4,6.68c.65.15.87.64,1.19,1A100,100,0,0,0,68.11,41.26a109.13,109.13,0,0,0,15,2.08c1.25.11,1.17-.34,1-1.32-2-13.15,1.55-24.49,11.62-33.35,8.16-7.17,17.84-9.84,28.6-8.2a34.05,34.05,0,0,1,19.3,9.78,2.06,2.06,0,0,0,2.21.63,72.46,72.46,0,0,0,19.42-7.31c.43-.24.89-.45,1.67-.83a36.28,36.28,0,0,1-14.5,19,22.76,22.76,0,0,0,6.25-.9c2.06-.5,4.12-1.05,6.15-1.69S168.93,17.69,171,17A2.5,2.5,0,0,0,171.21,17.2Z"/></g></g></svg>